<svg width="17" height="15" viewBox="0 0 17 15" fill="none" xmlns="http://www.w3.org/2000/svg">
<path d="M16.9568 4.41005C16.917 3.61304 16.7709 3.06511 16.5616 2.59031C16.3457 2.08633 16.0135 1.63511 15.5783 1.26002C15.1531 0.879081 14.6383 0.583078 14.0736 0.395586C13.5323 0.210956 12.9144 0.0820704 12.011 0.0469301C11.1008 0.00881369 10.8118 0 8.50331 0C6.19479 0 5.90584 0.00881369 4.99902 0.043954C4.09556 0.0790944 3.47445 0.208095 2.93638 0.39261C2.36496 0.583078 1.85348 0.876105 1.42829 1.26002C0.996481 1.63511 0.661077 2.0893 0.448417 2.58745C0.23913 3.06511 0.0930309 3.61007 0.0531976 4.40708C0.00999076 5.21004 0 5.46495 0 7.50149C0 9.53802 0.00999076 9.79294 0.0498241 10.5929C0.0896574 11.3899 0.235886 11.9379 0.445173 12.4127C0.661077 12.9166 0.996481 13.3679 1.42829 13.743C1.85348 14.1239 2.36833 14.4199 2.933 14.6074C3.47445 14.792 4.09219 14.9209 4.99577 14.956C5.90247 14.9913 6.19155 15 8.50006 15C10.8086 15 11.0975 14.9913 12.0044 14.956C12.9078 14.9209 13.5289 14.792 14.067 14.6074C15.2097 14.2176 16.1132 13.4206 16.555 12.4127C16.7641 11.935 16.9103 11.3899 16.9502 10.5929C16.99 9.79294 17 9.53802 17 7.50149C17 5.46495 16.9966 5.21004 16.9568 4.41005ZM15.4256 10.5343C15.389 11.2669 15.2495 11.6625 15.1333 11.9262C14.8476 12.5797 14.2597 13.0983 13.5189 13.3504C13.22 13.4529 12.7683 13.576 11.9412 13.6081C11.0443 13.6434 10.7754 13.6521 8.50668 13.6521C6.238 13.6521 5.96565 13.6434 5.07206 13.6081C4.24166 13.576 3.79325 13.4529 3.4943 13.3504C3.12568 13.2302 2.79015 13.0397 2.5178 12.7906C2.23547 12.5474 2.01956 12.2544 1.88332 11.9292C1.76707 11.6654 1.62759 11.2669 1.59113 10.5373C1.55116 9.74612 1.5413 9.50872 1.5413 7.50733C1.5413 5.50593 1.55116 5.26567 1.59113 4.47747C1.62759 3.74491 1.76707 3.34932 1.88332 3.0856C2.01956 2.76029 2.23547 2.4644 2.52118 2.22403C2.79677 1.97496 3.12893 1.78449 3.49768 1.66442C3.79662 1.56186 4.24841 1.43881 5.07544 1.40653C5.97227 1.37139 6.24137 1.36257 8.50993 1.36257C10.782 1.36257 11.051 1.37139 11.9445 1.40653C12.7749 1.43881 13.2234 1.56186 13.5223 1.66442C13.8909 1.78449 14.2265 1.97496 14.4988 2.22403C14.7811 2.46726 14.997 2.76029 15.1333 3.0856C15.2495 3.34932 15.389 3.74777 15.4256 4.47747C15.4654 5.26865 15.4754 5.50593 15.4754 7.50733C15.4754 9.50872 15.4654 9.74314 15.4256 10.5343Z" fill="#B17480"/>
<path d="M8.50306 3.64821C6.09165 3.64821 4.13515 5.37409 4.13515 7.50151C4.13515 9.62893 6.09165 11.3548 8.50306 11.3548C10.9146 11.3548 12.871 9.62893 12.871 7.50151C12.871 5.37409 10.9146 3.64821 8.50306 3.64821ZM8.50306 10.0011C6.93866 10.0011 5.6697 8.88171 5.6697 7.50151C5.6697 6.12131 6.93866 5.00197 8.50306 5.00197C10.0676 5.00197 11.3364 6.12131 11.3364 7.50151C11.3364 8.88171 10.0676 10.0011 8.50306 10.0011Z" fill="#B17480"/>
<path d="M14.0635 3.49583C14.0635 3.9926 13.6069 4.3954 13.0437 4.3954C12.4805 4.3954 12.024 3.9926 12.024 3.49583C12.024 2.99894 12.4805 2.59626 13.0437 2.59626C13.6069 2.59626 14.0635 2.99894 14.0635 3.49583Z" fill="#B17480"/>
</svg>
