<svg width="13" height="15" viewBox="0 0 13 15" fill="none" xmlns="http://www.w3.org/2000/svg">
<path d="M9.58199 0.572102L9.22238 0H7.02651V5.1411L7.02054 10.1614C7.02241 10.1987 7.02651 10.2386 7.02651 10.2785C7.02826 10.7645 6.87476 11.2385 6.58821 11.6319C6.30166 12.0252 5.89694 12.3174 5.43266 12.4663C4.96837 12.6151 4.4686 12.6128 4.00571 12.4597C3.54282 12.3066 3.14082 12.0106 2.85793 11.6147C2.57504 11.2187 2.42593 10.7433 2.43219 10.2573C2.43845 9.77128 2.59974 9.29984 2.89273 8.91126C3.18572 8.52267 3.5952 8.2371 4.06188 8.09589C4.52856 7.95468 5.02821 7.96516 5.48851 8.12581V5.61959C5.24013 5.57877 4.98886 5.55794 4.73712 5.55731C3.48122 5.55879 2.27716 6.05667 1.3891 6.94174C0.501045 7.82681 0.00148551 9.02679 0 10.2785C0 12.8816 2.12552 15 4.73712 15C5.99312 14.9985 7.19724 14.5006 8.08537 13.6155C8.9735 12.7303 9.4731 11.5302 9.47458 10.2785V4.30756C10.4228 5.25261 11.645 6.1723 13 6.46693V3.90552C11.529 3.25584 10.0662 1.33777 9.58199 0.572102Z" fill="#B17480"/>
</svg>
