<svg width="16" height="17" viewBox="0 0 16 17" fill="none" xmlns="http://www.w3.org/2000/svg">
<path fill-rule="evenodd" clip-rule="evenodd" d="M11.6659 10.1873C11.4662 10.0817 10.4876 9.57314 10.3054 9.50231C10.1231 9.43218 9.99051 9.39747 9.85721 9.60855C9.72457 9.81822 9.34342 10.2928 9.22753 10.4331C9.11097 10.574 8.99508 10.591 8.79613 10.4862C8.59717 10.3799 7.95543 10.1582 7.19513 9.44139C6.60363 8.88322 6.20371 8.19402 6.08782 7.98293C5.97193 7.77256 6.0751 7.65852 6.17491 7.55368C6.26467 7.45948 6.37386 7.30789 6.47367 7.18535C6.57348 7.0621 6.60631 6.97427 6.67262 6.83331C6.73961 6.69306 6.70612 6.57052 6.65588 6.46498C6.60631 6.35944 6.2084 5.32315 6.04227 4.90169C5.88083 4.49156 5.71671 4.54752 5.5948 4.54044C5.47824 4.53477 5.3456 4.53336 5.21297 4.53336C5.08033 4.53336 4.86463 4.58577 4.68243 4.79685C4.49955 5.00723 3.98576 5.51652 3.98576 6.55281C3.98576 7.58839 4.6985 8.58926 4.79831 8.73022C4.89813 8.87047 6.2017 10.9969 8.1986 11.9085C8.67421 12.1253 9.04465 12.2549 9.33337 12.3512C9.81032 12.512 10.2444 12.4893 10.5874 12.4348C10.9692 12.3746 11.765 11.9255 11.9311 11.4339C12.0966 10.9423 12.0966 10.5209 12.047 10.4331C11.9975 10.3452 11.8648 10.2928 11.6652 10.1873H11.6659ZM8.03381 15.431H8.03113C6.84507 15.4313 5.68079 15.0941 4.66032 14.455L4.41916 14.3034L1.91249 14.999L2.5817 12.415L2.42428 12.1501C1.76119 11.034 1.41028 9.74227 1.4121 8.42422C1.41344 4.56381 4.38366 1.42307 8.03649 1.42307C9.80496 1.42307 11.4676 2.15265 12.7176 3.47582C13.3341 4.12506 13.8228 4.89713 14.1553 5.74736C14.4878 6.5976 14.6576 7.50911 14.6549 8.42918C14.6535 12.2896 11.6833 15.431 8.03381 15.431ZM13.6688 2.47069C12.9307 1.6851 12.0525 1.0622 11.0851 0.638095C10.1178 0.213991 9.08038 -0.00288734 8.03314 2.90257e-05C3.64278 2.90257e-05 0.0683272 3.77898 0.0669875 8.42352C0.0649531 9.90163 0.43165 11.3542 1.13008 12.6345L0 17L4.22289 15.8284C5.39107 16.5014 6.70015 16.8541 8.03046 16.8541H8.03381C12.4242 16.8541 15.9986 13.0751 16 8.42989C16.0032 7.32296 15.7988 6.22634 15.3987 5.20346C14.9986 4.18058 14.4106 3.25175 13.6688 2.47069Z" fill="#B17480"/>
</svg>
