<svg width="14" height="12" viewBox="0 0 14 12" fill="none" xmlns="http://www.w3.org/2000/svg">
<path d="M13.8531 3.10676C13.7596 1.50692 12.9711 0.550355 11.8094 0.346653C10.6186 0.138185 9.74185 0 7.0066 0C4.27135 0 3.38136 0.0988737 2.19058 0.346653C1.05273 0.584901 0.246535 1.5647 0.146421 3.10676C0.127016 3.40458 0 4.61429 0 5.86033C0 7.58763 0.125693 8.61687 0.146421 8.94208C0.246535 10.5121 1.05273 11.5033 2.19058 11.7022C3.38532 11.9124 4.33177 12 7.0066 12C9.59543 12 10.6186 11.9196 11.8094 11.7022C12.912 11.5021 13.7292 10.4961 13.8531 8.94208C13.9523 7.96964 14.0014 6.98907 14 6.00745C14 4.44275 13.8712 3.41768 13.8531 3.10676ZM6.04692 8.31906V3.52013L9.12441 5.91989L6.04692 8.31906Z" fill="#B17480"/>
</svg>
